<?xml version="1.0" encoding="UTF-8" standalone="no"?>
<!DOCTYPE svg PUBLIC "-//W3C//DTD SVG 1.1//EN"
 "http://www.w3.org/Graphics/SVG/1.1/DTD/svg11.dtd">
<!-- Generated by graphviz version 2.38.0 (20140413.2041)
 -->
<!-- Title: ProjectSurveys Pages: 1 -->
<svg width="685pt" height="403pt"
 viewBox="0.00 0.00 684.79 402.60" xmlns="http://www.w3.org/2000/svg" xmlns:xlink="http://www.w3.org/1999/xlink">
<g id="graph0" class="graph" transform="scale(1 1) rotate(0) translate(28.8 373.8)">
<title>ProjectSurveys</title>
<polygon fill="white" stroke="none" points="-28.8,28.8 -28.8,-373.8 655.994,-373.8 655.994,28.8 -28.8,28.8"/>
<text text-anchor="middle" x="313.597" y="-330.6" font-family="Arial Bold" font-size="13.00">Database schema diagram</text>
<!-- m_Answer -->
<g id="node1" class="node"><title>m_Answer</title>
<path fill="none" stroke="black" d="M34.1945,-0.5C34.1945,-0.5 298.194,-0.5 298.194,-0.5 304.194,-0.5 310.194,-6.5 310.194,-12.5 310.194,-12.5 310.194,-37.5 310.194,-37.5 310.194,-43.5 304.194,-49.5 298.194,-49.5 298.194,-49.5 34.1945,-49.5 34.1945,-49.5 28.1945,-49.5 22.1945,-43.5 22.1945,-37.5 22.1945,-37.5 22.1945,-12.5 22.1945,-12.5 22.1945,-6.5 28.1945,-0.5 34.1945,-0.5"/>
<text text-anchor="start" x="72.1945" y="-22.2" font-family="Arial Bold" font-size="11.00">Answer</text>
<polyline fill="none" stroke="black" points="166.194,-0.5 166.194,-49.5 "/>
<text text-anchor="start" x="173.194" y="-36" font-family="Arial" font-size="10.00">choice_id </text>
<text text-anchor="start" x="218.194" y="-36" font-family="Arial Italic" font-size="10.00" fill="#999999">integer FK</text>
<text text-anchor="start" x="173.194" y="-23" font-family="Arial" font-size="10.00">question_id </text>
<text text-anchor="start" x="226.194" y="-23" font-family="Arial Italic" font-size="10.00" fill="#999999">integer FK</text>
<text text-anchor="start" x="173.194" y="-10" font-family="Arial" font-size="10.00">survey_answer_id </text>
<text text-anchor="start" x="253.194" y="-10" font-family="Arial Italic" font-size="10.00" fill="#999999">integer FK</text>
</g>
<!-- m_Choice -->
<g id="node2" class="node"><title>m_Choice</title>
<path fill="none" stroke="black" d="M34.1945,-86.5C34.1945,-86.5 298.194,-86.5 298.194,-86.5 304.194,-86.5 310.194,-92.5 310.194,-98.5 310.194,-98.5 310.194,-110.5 310.194,-110.5 310.194,-116.5 304.194,-122.5 298.194,-122.5 298.194,-122.5 34.1945,-122.5 34.1945,-122.5 28.1945,-122.5 22.1945,-116.5 22.1945,-110.5 22.1945,-110.5 22.1945,-98.5 22.1945,-98.5 22.1945,-92.5 28.1945,-86.5 34.1945,-86.5"/>
<text text-anchor="start" x="73.1945" y="-101.7" font-family="Arial Bold" font-size="11.00">Choice</text>
<polyline fill="none" stroke="black" points="166.194,-86.5 166.194,-122.5 "/>
<text text-anchor="start" x="173.194" y="-109.5" font-family="Arial" font-size="10.00">content </text>
<text text-anchor="start" x="209.194" y="-109.5" font-family="Arial Italic" font-size="10.00" fill="#999999">string ∗</text>
<text text-anchor="start" x="173.194" y="-96.5" font-family="Arial" font-size="10.00">question_id </text>
<text text-anchor="start" x="226.194" y="-96.5" font-family="Arial Italic" font-size="10.00" fill="#999999">integer FK</text>
</g>
<!-- m_Choice&#45;&gt;m_Answer -->
<g id="edge3" class="edge"><title>m_Choice&#45;&gt;m_Answer</title>
<path fill="none" stroke="black" d="M166.194,-86.3002C166.194,-78.2064 166.194,-68.2734 166.194,-58.8222"/>
<polygon fill="black" stroke="black" points="169.345,-58.6176 166.194,-49.6176 163.045,-58.6177 169.345,-58.6176"/>
</g>
<!-- m_Question -->
<g id="node3" class="node"><title>m_Question</title>
<path fill="none" stroke="black" d="M34.1945,-159.5C34.1945,-159.5 298.194,-159.5 298.194,-159.5 304.194,-159.5 310.194,-165.5 310.194,-171.5 310.194,-171.5 310.194,-196.5 310.194,-196.5 310.194,-202.5 304.194,-208.5 298.194,-208.5 298.194,-208.5 34.1945,-208.5 34.1945,-208.5 28.1945,-208.5 22.1945,-202.5 22.1945,-196.5 22.1945,-196.5 22.1945,-171.5 22.1945,-171.5 22.1945,-165.5 28.1945,-159.5 34.1945,-159.5"/>
<text text-anchor="start" x="67.6945" y="-181.2" font-family="Arial Bold" font-size="11.00">Question</text>
<polyline fill="none" stroke="black" points="166.194,-159.5 166.194,-208.5 "/>
<text text-anchor="start" x="173.194" y="-195" font-family="Arial" font-size="10.00">content </text>
<text text-anchor="start" x="209.194" y="-195" font-family="Arial Italic" font-size="10.00" fill="#999999">text ∗</text>
<text text-anchor="start" x="173.194" y="-182" font-family="Arial" font-size="10.00">position </text>
<text text-anchor="start" x="210.194" y="-182" font-family="Arial Italic" font-size="10.00" fill="#999999">integer ∗ U</text>
<text text-anchor="start" x="173.194" y="-169" font-family="Arial" font-size="10.00">survey_id </text>
<text text-anchor="start" x="217.194" y="-169" font-family="Arial Italic" font-size="10.00" fill="#999999">integer FK</text>
</g>
<!-- m_Question&#45;&gt;m_Answer -->
<g id="edge2" class="edge"><title>m_Question&#45;&gt;m_Answer</title>
<path fill="none" stroke="black" d="M51.7519,-159.376C34.2023,-150.763 18.2695,-139.017 7.19446,-123 -14.5703,-91.5241 17.7688,-68.42 58.8395,-52.6742"/>
<polygon fill="black" stroke="black" points="60.0704,-55.5781 67.4376,-49.5243 57.9032,-49.6626 60.0704,-55.5781"/>
</g>
<!-- m_Question&#45;&gt;m_Choice -->
<g id="edge4" class="edge"><title>m_Question&#45;&gt;m_Choice</title>
<path fill="none" stroke="black" d="M166.194,-159.326C166.194,-150.696 166.194,-140.884 166.194,-132.022"/>
<polygon fill="black" stroke="black" points="169.345,-131.88 166.194,-122.88 163.045,-131.88 169.345,-131.88"/>
</g>
<!-- m_Survey -->
<g id="node4" class="node"><title>m_Survey</title>
<path fill="none" stroke="black" d="M160.194,-245.5C160.194,-245.5 424.194,-245.5 424.194,-245.5 430.194,-245.5 436.194,-251.5 436.194,-257.5 436.194,-257.5 436.194,-295.5 436.194,-295.5 436.194,-301.5 430.194,-307.5 424.194,-307.5 424.194,-307.5 160.194,-307.5 160.194,-307.5 154.194,-307.5 148.194,-301.5 148.194,-295.5 148.194,-295.5 148.194,-257.5 148.194,-257.5 148.194,-251.5 154.194,-245.5 160.194,-245.5"/>
<text text-anchor="start" x="199.194" y="-273.7" font-family="Arial Bold" font-size="11.00">Survey</text>
<polyline fill="none" stroke="black" points="292.194,-245.5 292.194,-307.5 "/>
<text text-anchor="start" x="299.194" y="-294.5" font-family="Arial" font-size="10.00">description </text>
<text text-anchor="start" x="350.194" y="-294.5" font-family="Arial Italic" font-size="10.00" fill="#999999">text</text>
<text text-anchor="start" x="299.194" y="-281.5" font-family="Arial" font-size="10.00">end_date </text>
<text text-anchor="start" x="342.194" y="-281.5" font-family="Arial Italic" font-size="10.00" fill="#999999">datetime ∗</text>
<text text-anchor="start" x="299.194" y="-268.5" font-family="Arial" font-size="10.00">password </text>
<text text-anchor="start" x="344.194" y="-268.5" font-family="Arial Italic" font-size="10.00" fill="#999999">string ∗</text>
<text text-anchor="start" x="299.194" y="-255.5" font-family="Arial" font-size="10.00">title </text>
<text text-anchor="start" x="318.194" y="-255.5" font-family="Arial Italic" font-size="10.00" fill="#999999">string ∗</text>
</g>
<!-- m_Survey&#45;&gt;m_Question -->
<g id="edge5" class="edge"><title>m_Survey&#45;&gt;m_Question</title>
<path fill="none" stroke="black" d="M250.238,-245.365C236.225,-235.3 220.642,-224.107 206.738,-214.12"/>
<polygon fill="black" stroke="black" points="208.354,-211.403 199.207,-208.711 204.679,-216.52 208.354,-211.403"/>
</g>
<!-- m_SurveyAnswer -->
<g id="node5" class="node"><title>m_SurveyAnswer</title>
<path fill="none" stroke="black" d="M351.194,-86.5C351.194,-86.5 615.194,-86.5 615.194,-86.5 621.194,-86.5 627.194,-92.5 627.194,-98.5 627.194,-98.5 627.194,-110.5 627.194,-110.5 627.194,-116.5 621.194,-122.5 615.194,-122.5 615.194,-122.5 351.194,-122.5 351.194,-122.5 345.194,-122.5 339.194,-116.5 339.194,-110.5 339.194,-110.5 339.194,-98.5 339.194,-98.5 339.194,-92.5 345.194,-86.5 351.194,-86.5"/>
<text text-anchor="start" x="370.194" y="-101.7" font-family="Arial Bold" font-size="11.00">SurveyAnswer</text>
<polyline fill="none" stroke="black" points="483.194,-86.5 483.194,-122.5 "/>
<text text-anchor="start" x="490.194" y="-102.5" font-family="Arial" font-size="10.00">survey_id </text>
<text text-anchor="start" x="534.194" y="-102.5" font-family="Arial Italic" font-size="10.00" fill="#999999">integer FK</text>
</g>
<!-- m_Survey&#45;&gt;m_SurveyAnswer -->
<g id="edge6" class="edge"><title>m_Survey&#45;&gt;m_SurveyAnswer</title>
<path fill="none" stroke="black" d="M325.902,-245.499C363.395,-212.128 423.158,-158.936 457.204,-128.633"/>
<polygon fill="black" stroke="black" points="459.433,-130.866 464.062,-122.529 455.245,-126.16 459.433,-130.866"/>
</g>
<!-- m_SurveyAnswer&#45;&gt;m_Answer -->
<g id="edge1" class="edge"><title>m_SurveyAnswer&#45;&gt;m_Answer</title>
<path fill="none" stroke="black" d="M413.627,-86.4923C371.936,-76.2995 318.106,-63.1392 271.307,-51.6978"/>
<polygon fill="black" stroke="black" points="271.842,-48.5859 262.351,-49.5083 270.346,-54.7056 271.842,-48.5859"/>
</g>
</g>
</svg>
